<svg xmlns="http://www.w3.org/2000/svg" width="1489" height="739" fill="none">
    <g fill="#fff" fill-opacity=".07" opacity=".5">
        <path
            d="M726.856 403.779c-9.746 18.834 9.111 64.246 16.38 80.297 6.184 13.879 10.368 27.989 17.984 25.963 7.617-2.026 4.633-17.586 1.172-32.623-3.46-15.037-10.341-35.325-12.233-43.266-1.892-7.942.134-5.652 6.787-3.02 6.652 2.631 9.932 4.406 15.484-.603 5.551-5.008 3.677-24.359 3.701-28.15.024-3.792-1.824-7.799 6.655-1.287 5.101 3.973 6.615 2.737 12.709-.668 4.252-2.388 3.741-8.747 4.541-13.938.857-6.342-.544-11.358 4.982-8.895 5.525 2.464 6.756 3.382 10.649.152 3.894-3.23.404-12.34-3.021-20.358-3.214-7.569-9.644-18.738-20.764-10.322-4.215 3.131-4.189 8.67-5.227 14.523-1.037 5.852-.538 12.054-11.219 6.429-2.815-1.607-7.774-5.173-13.24-1.203-2.485 1.956-3.911 11.197-4.331 16.983-.419 5.786-.678 17.11-3.282 18.548-6.522 3.606-22.201-9.296-27.667 1.46m104.129 10.959c-11.81 8.353-25.404 26.99-31.917 39.15-5.963 11.289-8.111 16.928-9.069 31.8-.455 8.522 6.471 10.301 9.161 3.297a107.36 107.36 0 0 1 16.109-27.605c7.908-10.097 18.741-15.121 31.497-21.812 12.211-6.547 12.417-18.008 7.476-22.755-7.536-7.343-18.401-5.434-23.257-2.075" />
        <path
            d="M1158.79 372.128c3.2-12.045 1.83-22.762-4.12-32.153-8.89-14.241-27.75-24.251-56.01-29.894l-1.23-.206c-6.56-1.291-11.24-2.144-12.16-3.544-.92-1.4.43-6.155 2.06-12.336l3.06-12.469c2.52-10.614 12.1-44.84 12.26-45.276l.04-.105 1-5.101c3.97-18.657 6.97-33.506-8.83-39.192-14.84-5.339-44.44-9.58-90.52-12.964-.35-.008-33.622-2.347-63.463-.974-12.57.566-36.854 2.005-57.683 4.45-32.822 3.998-38.973 8.553-40.637 12.517-3.71 8.657-1.858 17.042.396 27.607.721 3.652 1.532 7.337 2.176 11.487 3.306 19.85 14.051 73.522 19.479 95.441.774 3.129 3.147 10.395 8.481 11.127 5.335.732 8.769-5.513 9.864-7.612a59.855 59.855 0 0 0 4.479-9.805c4.659-12.946 4.86-25.715 4.293-36.725-.327-5.359-1.375-13.336-2.515-21.719-1.883-13.621-4.178-30.342-2.884-36.577 6.368-7.089 94.308-14.068 115.534-13.929 29.69.355 59.41 3.67 62.41 7.195 1.89 4.972-6.45 38.39-10.4 54.629l-3.95 15.932c-5.15 23.219-5.57 35.316-1.45 40.715a7.883 7.883 0 0 0 2.74 2.309c1.07.552 2.26.852 3.47.878 51.94 1.811 62.77 12.494 65 16.858 1.58 3.183.96 6.758-1.96 11.051-5.28 7.736-20.73 4.417-42.16-.075a358.99 358.99 0 0 0-45.06-7.53c-26.11-2.391-66.331-4.854-111.857.459-16.642 1.984-49.489 10.248-80.143 22.27-17.572 6.875-27.349 13.585-29.732 20.208a8.277 8.277 0 0 0 .361 6.916c2.606 4.636 11.816 2.471 39.303-5.229l9.123-2.535c16.174-4.358 72.47-16.126 110.587-14.758 33.338 1.174 71.688 5.834 113.958 13.869 33.81 6.465 67.66 9.964 76.68-25.18M808.372 30.908c-20.741 16.05-23.239 76.809-23.445 98.599-.292 18.789-2.946 36.795 6.652 38.489 9.598 1.694 14.355-17.314 18.304-35.983 3.949-18.669 6.797-45.01 8.811-54.902 2.013-9.893 3.093-6.27 9.185.147 6.092 6.416 8.847 10.114 17.682 7.388 8.835-2.727 16.811-25.41 18.813-29.65 2.001-4.24 2.014-9.697 8.134 2.024 3.653 7.113 5.995 6.514 14.603 5.868 6.014-.464 8.752-7.862 12.353-13.27 4.264-6.666 5.305-13.022 10.22-7.381 4.915 5.64 5.818 7.311 11.867 5.716 6.049-1.596 6.879-13.632 7.213-24.41.337-10.163-1.059-26.04-17.915-22.391-6.358 1.318-9.214 7.544-13.426 13.568-4.211 6.024-6.881 13.241-15.933 1.369-2.32-3.268-6.026-9.85-14.225-8.244-3.806.9-10.218 10.522-13.702 16.794s-9.671 18.839-13.341 19.095c-9.195.65-20.062-21.99-31.794-12.77m111.093 66.522c-17.599 3.22-42.553 17.044-56.191 27.292-12.568 9.558-17.914 14.765-26.734 30.947-4.948 9.322 1.893 14.925 8.559 8.469A132.8 132.8 0 0 1 877.6 141.62c14.13-7.207 28.897-7.202 46.69-8.063 17.107-.984 23.307-13.733 20.236-21.631-4.628-12.16-17.81-15.678-25.005-14.44" />
        <path
            d="M1309.35 220.351c9.87-11.842 13.91-24.579 12.12-38.212-2.55-20.602-18.49-41.651-47.25-62.701l-1.28-.873c-6.68-4.864-11.49-8.258-11.79-10.308-.31-2.05 3.69-6.678 8.74-12.762l9.93-12.392c8.34-10.596 36.92-43.996 37.32-44.403l.1-.098 3.78-5.198c14.17-18.863 25.27-33.955 10.51-48.56-13.87-13.718-44.86-33.891-94.78-61.683-.4-.194-36.5-20.144-70.69-34.145-14.39-5.912-42.38-16.945-67.02-25.05-38.89-12.608-48.17-10.702-52.1-7.122-8.67 7.778-10.96 18.147-13.93 31.172-1.09 4.473-2.1 9.028-3.54 14.019-6.63 23.987-22.53 89.786-27.86 117.2-.76 3.913-1.881 13.299 3.72 16.898 5.6 3.6 12.71-1.617 15.03-3.401a74.094 74.094 0 0 0 10.13-8.666c11.97-12.095 18.84-26.313 23.94-38.958 2.43-6.183 5.4-15.676 8.49-25.672 4.98-16.26 11.12-36.21 15.82-42.53 10.83-4.636 113.11 33.334 136.84 44.542 33.12 15.863 64.73 35.056 66.26 40.575-.46 6.563-27.23 39.702-40.11 55.864L1229 73.699c-17.87 23.362-24.64 36.714-22.84 44.912.32 1.464.96 2.838 1.88 4.018a9.818 9.818 0 0 0 3.44 2.794c57.31 29.079 63.89 46.701 64.12 52.758.12 4.396-2.44 8.08-7.95 11.376-9.95 5.929-25.55-5.839-47.25-22.042a443.51 443.51 0 0 0-46.63-31.913c-28.04-16.281-71.87-39.987-125.7-57.737-19.7-6.442-60.851-14.278-101.496-16.757-23.29-1.44-37.752.995-43.875 7.183a10.253 10.253 0 0 0-3.196 7.945c.509 6.558 11.968 8.926 46.809 14.604l11.554 1.907c20.411 3.535 89.684 19.654 131.734 41.039 36.78 18.677 77.38 43.88 120.6 74.904 34.55 24.858 70.71 46.414 99.12 11.689M270.153 337.312c-11.978 23.146 11.197 78.958 20.131 98.685 7.6 17.058 12.743 34.4 22.103 31.91 9.361-2.49 5.694-21.614 1.441-40.095-4.254-18.48-12.71-43.414-15.035-53.174-2.325-9.76.164-6.946 8.341-3.712 8.176 3.234 12.207 5.415 19.03-.74 6.822-6.156 4.519-29.939 4.549-34.598.03-4.659-2.243-9.584 8.178-1.581 6.27 4.883 8.13 3.364 15.62-.821 5.226-2.935 4.598-10.75 5.581-17.131 1.053-7.793-.669-13.958 6.123-10.931 6.791 3.028 8.303 4.156 13.088.186 4.785-3.969.496-15.166-3.713-25.02-3.95-9.302-11.853-23.029-25.52-12.686-5.179 3.849-5.148 10.656-6.423 17.849-1.275 7.192-.661 14.815-13.789 7.901-3.459-1.974-9.554-6.357-16.272-1.478-3.054 2.404-4.806 13.761-5.322 20.873-.516 7.111-.833 21.028-4.034 22.795-8.016 4.433-27.286-11.425-34.003 1.794m127.976 13.469c-14.515 10.267-31.222 33.171-39.227 48.116-7.328 13.875-9.969 20.806-11.146 39.083-.559 10.473 7.953 12.661 11.259 4.052a131.952 131.952 0 0 1 19.798-33.926c9.72-12.41 23.033-18.585 38.71-26.808 15.009-8.046 15.262-22.132 9.189-27.966-9.262-9.024-22.615-6.679-28.583-2.551" />
        <path
            d="M801.005 298.412c3.937-14.803 2.249-27.975-5.064-39.516-10.923-17.503-34.099-29.805-68.838-36.74l-1.515-.253c-8.06-1.587-13.812-2.636-14.944-4.357-1.132-1.72.533-7.563 2.537-15.161l3.764-15.324c3.089-13.045 14.87-55.109 15.063-55.645l.046-.129 1.235-6.269c4.874-22.93 8.564-41.179-10.854-48.167-18.236-6.563-54.618-11.775-111.246-15.934-.435-.01-41.327-2.884-78.002-1.196-15.448.695-45.294 2.463-70.893 5.468-40.338 4.914-47.898 10.512-49.943 15.385-4.559 10.639-2.284 20.944.486 33.928.887 4.489 1.884 9.018 2.675 14.118 4.064 24.396 17.269 90.359 23.94 117.299.951 3.845 3.867 12.775 10.423 13.675 6.557.9 10.778-6.775 12.124-9.356a73.633 73.633 0 0 0 5.504-12.05c5.726-15.911 5.973-31.604 5.276-45.135-.402-6.587-1.69-16.391-3.09-26.694-2.315-16.74-5.136-37.29-3.546-44.953 7.827-8.713 115.906-17.29 141.989-17.119 36.494.437 73.014 4.51 76.709 8.842 2.325 6.111-7.931 47.182-12.778 67.141l-4.858 19.58c-6.329 28.537-6.842 43.404-1.787 50.039a9.81 9.81 0 0 0 7.639 3.917c63.829 2.226 77.138 15.355 79.878 20.719 1.948 3.912 1.18 8.306-2.407 13.582-6.486 9.508-25.471 5.428-51.817-.092a440.907 440.907 0 0 0-55.379-9.255c-32.092-2.938-81.518-5.965-137.47.565-20.454 2.438-60.823 12.595-98.497 27.37-21.596 8.449-33.612 16.696-36.541 24.836a10.169 10.169 0 0 0 .444 8.499c3.203 5.698 14.522 3.037 48.304-6.426l11.212-3.116c19.878-5.355 89.067-19.818 135.913-18.137 40.969 1.442 88.111 7.169 140.056 17.044 41.547 7.947 83.156 12.246 94.238-30.946m154.761 493.856c-.366-16.824-6.17-30.209-17.412-40.155-16.872-15.135-45.087-21.039-83.866-17.749l-1.675.196c-8.991.786-15.381 1.436-17.101-.034-1.72-1.47-1.748-8.145-1.953-16.774l-.708-17.322c-.724-14.709-1.138-62.698-1.098-63.322l.01-.15-.612-6.993c-1.859-25.687-3.538-46.072-26.164-47.516-21.249-1.357-61.234 4.254-122.265 17.159-.461.122-44.493 9.577-82.681 22.559-16.091 5.451-47.046 16.432-73.144 27.421-41.068 17.505-47.337 25.722-48.007 31.488-1.561 12.62 3.987 22.8 10.875 35.657 2.307 4.466 4.742 8.94 7.135 14.082 11.738 24.503 45.819 90.082 61.086 116.474 2.179 3.767 7.983 12.301 15.177 11.248 7.193-1.052 9.304-10.441 9.936-13.575a80.733 80.733 0 0 0 2.128-14.398c1.184-18.539-3.347-35.176-8.215-49.243-2.437-6.828-6.79-16.781-11.414-27.226-7.556-16.959-16.808-37.784-17.47-46.357 5.598-11.584 117.036-53.643 144.613-61.428 38.646-10.684 78.43-17.539 83.652-14.096 4.32 5.739 6.04 52.214 7.02 74.757l.853 22.146c2.036 32.048 6.035 47.895 13.396 53.353a10.775 10.775 0 0 0 9.257 1.8c68.039-17.144 86.094-7.353 90.624-2.529 3.251 3.533 3.782 8.404 1.608 15.068-3.942 12.014-25.222 13.506-54.711 15.727a484.44 484.44 0 0 0-61.268 7.146c-34.764 6.7-87.849 18.601-144.9 42.579-20.841 8.82-60.341 31.867-95.587 58.965-20.209 15.511-30.371 27.884-30.977 37.369a11.18 11.18 0 0 0 3.064 8.833c5.121 5.035 16.254-1.23 49.014-21.533l10.88-6.712c19.342-11.723 87.94-48.116 137.89-60.648 43.676-10.99 95.174-19.343 153.008-24.786 46.272-4.302 91.495-12.472 89.999-61.438M386.95 970.966c9.414-13.949 12.402-28.229 8.964-42.841-5.039-22.098-24.669-43.208-58.232-62.908l-1.481-.807c-7.795-4.548-13.389-7.707-13.944-9.9-.556-2.194 3.275-7.66 8.089-14.824l9.421-14.553c7.901-12.428 35.267-51.852 35.66-52.338l.095-.117 3.537-6.063c13.312-22.048 23.709-39.662 6.068-53.903-16.568-13.375-52.456-31.877-109.74-56.573-.447-.167-41.858-17.866-80.534-29.312-16.286-4.838-47.901-13.742-75.555-19.836-43.639-9.415-53.5-6.325-57.377-2.004-8.56 9.403-9.907 20.919-11.705 35.394-.695 4.978-1.29 10.037-2.304 15.617-4.561 26.784-14.592 100.006-17.362 130.37-.396 4.333-.583 14.652 5.899 17.946 6.481 3.293 13.625-3.155 15.95-5.349a80.842 80.842 0 0 0 10.05-10.527c11.669-14.455 17.573-30.655 21.72-44.952 1.952-6.982 4.143-17.621 6.397-28.819 3.622-18.21 8.09-40.556 12.497-47.938 11.26-6.227 126.533 23.764 153.544 33.328 37.724 13.586 74.166 30.956 76.443 36.783.213 7.18-25.212 46.12-37.426 65.093l-12.088 18.576c-16.839 27.343-22.723 42.591-19.863 51.297a10.774 10.774 0 0 0 6.519 6.815c65.454 25.28 74.544 43.697 75.457 50.251.616 4.762-1.763 9.046-7.385 13.232-10.155 7.535-28.392-3.532-53.753-18.743a484.623 484.623 0 0 0-54.152-29.535c-32.254-14.599-82.47-35.527-142.897-48.884-22.108-4.83-67.667-8.815-112.09-7.036-25.456.998-40.896 5.235-46.866 12.63a11.185 11.185 0 0 0-2.598 8.982c1.275 7.067 13.981 8.379 52.452 10.713l12.76.8c22.56 1.594 99.582 11.481 147.603 30.084 42.007 16.24 88.879 39.15 139.244 68.093 40.267 23.2 81.909 42.632 108.956 1.791" />
        <path
            d="M852.766 560.051c-10.242 10.468-6.966 44.267-5.41 56.336 1.279 10.415 1.191 20.578 6.63 20.779 5.439.201 6.613-10.677 7.366-21.306.754-10.629.31-25.417.665-31.044.356-5.626 1.231-3.705 5.092-.623 3.861 3.082 5.669 4.917 10.347 2.731 4.678-2.185 7.351-15.343 8.133-17.841.782-2.499.371-5.519 4.654.495 2.566 3.654 3.815 3.144 8.528 2.127 3.29-.718 4.238-5.02 5.815-8.287 1.847-4.014 1.936-7.61 5.087-4.867 3.151 2.744 3.778 3.598 7.002 2.252 3.224-1.346 2.76-8.067 2.119-14.054-.593-5.648-2.582-14.323-11.626-11.012-3.416 1.216-4.518 4.879-6.386 8.534-1.868 3.655-2.791 7.851-8.708 1.978-1.534-1.629-4.089-4.986-8.5-3.469-2.037.789-4.845 6.603-6.292 10.34-1.446 3.736-3.905 11.161-5.915 11.585-5.037 1.063-12.783-10.626-18.566-4.627m66.549 28.279c-9.487 3.13-22.23 12.69-28.988 19.403-6.219 6.251-8.777 9.54-12.415 19.167-2.022 5.536 2.191 8.111 5.383 4.029a74.152 74.152 0 0 1 16.216-14.974c7.263-5.07 15.432-6.198 25.207-8.039 9.387-1.856 11.84-9.383 9.536-13.516-3.493-6.372-11.053-7.307-14.939-6.07" />
        <path
            d="M1144.4 626.433c4.55-7.306 5.8-14.661 3.77-22.065-2.99-11.2-13.42-21.621-30.94-31.059l-.78-.385c-4.07-2.178-6.98-3.687-7.31-4.798-.32-1.111 1.53-3.977 3.86-7.729l4.54-7.615c3.8-6.502 17.05-27.166 17.24-27.422l.05-.062 1.69-3.166c6.39-11.519 11.37-20.718 2.09-27.665-8.72-6.525-27.41-15.307-57.16-26.853-.23-.077-21.73-8.344-41.71-13.468-8.41-2.166-24.74-6.123-38.99-8.718-22.483-3.992-27.466-2.227-29.366.055-4.198 4.967-4.67 10.878-5.317 18.31-.262 2.558-.47 5.155-.884 8.026-1.828 13.776-5.578 51.39-6.423 66.962-.121 2.222-.023 7.5 3.352 9.062 3.375 1.561 6.905-1.869 8.052-3.034a41.216 41.216 0 0 0 4.939-5.57c5.693-7.607 8.406-15.999 10.256-23.384.867-3.605 1.787-9.085 2.729-14.851 1.508-9.375 3.372-20.881 5.486-24.737 5.638-3.395 65.126 9.767 79.106 14.148 19.54 6.235 38.49 14.428 39.76 17.363.25 3.666-12.01 24.048-17.9 33.975l-5.83 9.722c-8.09 14.293-10.81 22.197-9.19 26.593a5.69 5.69 0 0 0 1.34 2.079c.6.582 1.33 1.02 2.12 1.281 33.93 11.691 38.93 20.934 39.52 24.267.4 2.422-.74 4.657-3.53 6.902-5.05 4.042-14.58-1.272-27.83-8.57-9.1-5.287-18.53-9.99-28.23-14.078-16.76-6.855-42.82-16.608-73.959-22.299-11.392-2.053-34.753-3.233-57.425-1.489-12.993.989-20.805 3.445-23.717 7.337a5.713 5.713 0 0 0-1.159 4.639c.784 3.589 7.303 4.02 27.011 4.49l6.536.169c11.562.391 51.116 3.996 76.013 12.602 21.77 7.511 46.16 18.339 72.45 32.186 21.02 11.101 42.67 20.253 55.72-1.133m23.58-202.341c-10.24 10.468-6.96 44.267-5.41 56.335 1.28 10.416 1.2 20.579 6.63 20.78 5.44.201 6.62-10.677 7.37-21.306.75-10.63.31-25.417.67-31.044.35-5.626 1.23-3.705 5.09-.623s5.67 4.917 10.34 2.731c4.68-2.185 7.35-15.343 8.14-17.842.78-2.498.37-5.518 4.65.496 2.57 3.654 3.82 3.144 8.53 2.127 3.29-.718 4.24-5.02 5.81-8.287 1.85-4.015 1.94-7.61 5.09-4.867 3.15 2.744 3.78 3.598 7 2.252 3.23-1.346 2.76-8.067 2.12-14.054-.59-5.648-2.58-14.323-11.62-11.013-3.42 1.217-4.52 4.88-6.39 8.535-1.87 3.655-2.79 7.851-8.71 1.978-1.53-1.63-4.09-4.987-8.5-3.469-2.03.789-4.84 6.603-6.29 10.339-1.45 3.737-3.91 11.162-5.92 11.585-5.03 1.064-12.78-10.625-18.56-4.626m66.55 28.279c-9.49 3.13-22.23 12.689-28.99 19.403-6.22 6.25-8.78 9.54-12.42 19.167-2.02 5.536 2.2 8.111 5.39 4.029a74.189 74.189 0 0 1 16.21-14.974c7.27-5.07 15.43-6.199 25.21-8.039 9.39-1.856 11.84-9.383 9.54-13.516-3.5-6.372-11.06-7.307-14.94-6.07" />
        <path
            d="M1459.59 490.492c4.55-7.306 5.81-14.661 3.78-22.065-2.99-11.2-13.42-21.621-30.95-31.059l-.77-.385c-4.07-2.178-6.99-3.688-7.31-4.798-.33-1.111 1.53-3.977 3.85-7.729l4.55-7.616c3.8-6.501 17.05-27.166 17.24-27.422l.05-.061 1.69-3.166c6.39-11.519 11.37-20.718 2.09-27.665-8.72-6.525-27.41-15.307-57.16-26.853-.23-.077-21.73-8.344-41.71-13.468-8.42-2.167-24.74-6.123-38.99-8.718-22.49-3.992-27.47-2.227-29.37.054-4.2 4.968-4.67 10.879-5.31 18.311-.27 2.558-.48 5.155-.89 8.026-1.83 13.776-5.58 51.39-6.42 66.962-.12 2.222-.02 7.5 3.35 9.061 3.37 1.562 6.91-1.868 8.05-3.033a40.952 40.952 0 0 0 4.94-5.57c5.69-7.608 8.41-15.999 10.26-23.384.86-3.606 1.78-9.085 2.73-14.851 1.5-9.376 3.37-20.881 5.48-24.737 5.64-3.395 65.12 9.767 79.11 14.148 19.54 6.235 38.49 14.428 39.76 17.363.25 3.666-12.02 24.048-17.9 33.975l-5.83 9.722c-8.09 14.292-10.82 22.197-9.19 26.593.28.786.74 1.497 1.34 2.079.6.582 1.33 1.02 2.12 1.281 33.93 11.691 38.92 20.934 39.51 24.267.41 2.422-.73 4.657-3.52 6.902-5.05 4.042-14.58-1.272-27.83-8.57-9.1-5.287-18.53-9.99-28.23-14.078-16.76-6.855-42.82-16.608-73.96-22.299-11.39-2.053-34.75-3.234-57.43-1.489-12.99.989-20.8 3.444-23.71 7.337a5.671 5.671 0 0 0-1.09 2.192c-.2.801-.23 1.636-.07 2.447.78 3.588 7.3 4.02 27.01 4.49l6.54.169c11.56.391 51.11 3.996 76.01 12.601 21.77 7.512 46.16 18.34 72.45 32.187 21.01 11.101 42.66 20.253 55.72-1.133m-97.97-243.179c-.27 10.659 18.24 27.055 25.06 32.717 5.84 4.919 10.84 10.381 13.83 7.791 3-2.59-1.76-8.972-6.63-15.012-4.87-6.041-12.44-13.704-15.04-16.88-2.6-3.176-1.18-2.586 2.4-2.857 3.59-.272 5.46-.19 6.87-3.675 1.41-3.485-3.69-11.825-4.51-13.545-.82-1.72-2.54-3.126 2.73-2.044 3.18.676 3.59-.216 5.6-3.095 1.4-2.015-.23-4.778-1.01-7.302-1-3.056-2.74-5.017.3-5.117 3.04-.1 3.8.045 4.85-2.272 1.05-2.316-2.53-5.669-5.84-8.543-3.12-2.717-8.48-6.356-11.66-.106-1.22 2.342.01 4.842.83 7.717.82 2.874 2.4 5.57-3.66 5.373-1.63-.109-4.66-.632-6.26 2.365-.69 1.43.7 5.923 1.78 8.632 1.08 2.709 3.45 7.888 2.59 9.11-2.16 3.065-12.09.674-12.19 6.74m49.5-17.924c-3.51 6.373-5.56 17.789-5.83 24.72-.22 6.416.05 9.438 2.88 16.375 1.67 3.954 5.19 3.237 4.87-.522a54.282 54.282 0 0 1 1.22-16.024c1.36-6.305 5.15-10.957 9.45-16.786 4.09-5.644 1.66-10.873-1.62-11.934-5.02-1.665-9.51 1.585-10.97 4.171" />
        <path
            d="M1550.01 138.108c-1.19-6.151-4.17-10.697-8.93-13.637-7.14-4.488-17.87-4.871-31.9-1.213l-.6.178c-3.25.857-5.55 1.5-6.28 1.069-.72-.431-1.15-2.879-1.77-6.033l-1.36-6.312c-1.19-5.353-4.38-22.939-4.4-23.17l-.01-.056-.67-2.528c-2.3-9.31-4.21-16.685-12.6-15.785-7.89.845-22.21 5.432-43.79 14.026-.16.073-15.72 6.327-28.92 13.505-5.56 3.017-16.22 9.004-25.11 14.687-13.96 9.02-15.75 12.432-15.63 14.59.23 4.73 2.91 8.116 6.25 12.399 1.13 1.493 2.3 2.981 3.51 4.717 5.85 8.251 22.51 30.165 29.78 38.885 1.04 1.245 3.7 4.01 6.28 3.169 2.57-.841 2.75-4.42 2.79-5.61.12-1.806.07-3.62-.13-5.418-.74-6.879-3.45-12.699-6.13-17.554-1.33-2.352-3.55-5.729-5.91-9.27-3.84-5.747-8.56-12.805-9.34-15.909 1.32-4.605 39.56-27.085 49.19-31.685 13.51-6.364 27.68-11.394 29.81-10.46 1.95 1.833 5.52 18.78 7.3 26.992l1.71 8.074c2.78 11.632 5.25 17.196 8.29 18.734a4.014 4.014 0 0 0 3.51.075c23.89-10.592 31.14-8.14 33.1-6.656 1.42 1.091 1.92 2.845 1.55 5.428-.69 4.659-8.41 6.551-19.09 9.23a180.684 180.684 0 0 0-22.03 6.495c-12.34 4.656-31.07 12.379-50.49 24.786-7.09 4.554-20.13 15.509-31.35 27.682-6.44 6.97-9.39 12.153-9.01 15.672.04.6.22 1.182.51 1.709.29.526.69.983 1.17 1.339 2.2 1.524 5.89-1.478 16.63-11l3.57-3.152c6.36-5.524 29.23-23.216 46.77-30.973 15.33-6.794 33.71-13.115 54.59-18.768 16.71-4.503 32.79-10.36 29.14-28.236M375.76 611.757c-2.894 14.356 18.25 40.927 26.124 50.204 6.742 8.041 12.2 16.615 16.872 13.824 4.672-2.792-.264-12.557-5.417-21.884S399.764 632.41 397 627.497c-2.764-4.914-.984-3.778 3.933-3.294s7.432 1.039 10.166-3.34c2.735-4.38-2.184-16.873-2.888-19.395-.704-2.521-2.692-4.831 4.174-2.117 4.142 1.669 4.912.561 8.312-2.857 2.37-2.394.823-6.519.368-10.117-.635-4.374-2.518-7.438 1.619-6.852 4.137.586 5.128.962 7.1-1.922 1.971-2.884-2.076-8.27-5.872-12.943-3.571-4.415-9.962-10.61-15.747-2.911-2.204 2.88-1.135 6.553-.713 10.636.423 4.082 1.932 8.105-6.228 6.399-2.174-.533-6.144-1.958-9.019 1.716-1.279 1.77-.471 8.177.349 12.098.82 3.922 2.799 11.489 1.343 12.938-3.646 3.634-16.506-1.956-18.093 6.224m71.219-12.498c-6.255 7.79-11.742 22.745-13.758 32.056-1.815 8.628-2.17 12.78.018 22.836 1.316 5.745 6.252 5.612 6.709.45a74.161 74.161 0 0 1 5.453-21.388c3.334-8.206 9.572-13.599 16.771-20.463 6.865-6.666 4.826-14.315.643-16.529-6.398-3.444-13.249-.114-15.836 3.038" />
        <path
            d="M656.539 508.718c-.16-8.606-3.107-15.461-8.841-20.566-8.605-7.768-23.027-10.833-42.867-9.212l-.857.097c-4.599.388-7.869.71-8.746-.044-.878-.755-.881-4.169-.972-8.583l-.335-8.861c-.347-7.524-.481-32.07-.46-32.389l.005-.077-.302-3.577c-.909-13.142-1.735-23.571-13.305-24.346-10.867-.727-31.327 2.078-62.563 8.581-.236.062-22.772 4.828-42.325 11.406-8.239 2.763-24.089 8.329-37.455 13.908-21.033 8.888-24.253 13.08-24.605 16.028-.818 6.453 2.003 11.668 5.506 18.255 1.172 2.288 2.411 4.581 3.626 7.214 5.965 12.552 23.291 46.148 31.058 59.671 1.108 1.93 4.063 6.304 7.744 5.778 3.681-.527 4.776-5.326 5.104-6.928a41.396 41.396 0 0 0 1.112-7.36c.634-9.481-1.656-17.997-4.124-25.2-1.235-3.496-3.446-8.594-5.794-13.943-3.837-8.687-8.536-19.353-8.861-23.739 2.882-5.916 59.946-27.249 74.064-31.187 19.783-5.403 40.142-8.845 42.808-7.076 2.2 2.943 3.005 26.716 3.47 38.247l.402 11.329c.99 16.395 3.009 24.506 6.766 27.31a5.513 5.513 0 0 0 4.732.935c34.827-8.659 44.046-3.623 46.355-1.148 1.657 1.812 1.921 4.304.798 7.709-2.035 6.139-12.921 6.868-28.008 7.957a247.57 247.57 0 0 0-31.348 3.557c-17.792 3.371-44.962 9.373-74.181 21.546-10.673 4.477-30.913 16.202-48.984 30.005-10.361 7.901-15.578 14.214-15.903 19.064a5.715 5.715 0 0 0 1.553 4.523c2.611 2.583 8.315-.603 25.103-10.935l5.576-3.416c9.911-5.965 45.056-24.469 70.624-30.799 22.356-5.551 48.709-9.741 78.298-12.432 23.674-2.127 46.818-6.233 46.131-31.28m537.412 213.558c-1.22-6.174-4.23-10.73-9.02-13.666-7.19-4.483-17.97-4.83-32.04-1.106l-.61.18c-3.26.873-5.57 1.526-6.3 1.096-.73-.43-1.17-2.888-1.81-6.054l-1.38-6.335c-1.22-5.372-4.48-23.025-4.5-23.258l-.01-.056-.68-2.536c-2.35-9.343-4.29-16.745-12.72-15.811-7.91.876-22.28 5.534-43.93 14.241-.16.075-15.77 6.411-29 13.667-5.57 3.051-16.27 9.101-25.17 14.84-14 9.11-15.77 12.543-15.65 14.711.25 4.75 2.95 8.141 6.32 12.431 1.14 1.496 2.33 2.987 3.54 4.726 5.91 8.267 22.72 30.22 30.05 38.954 1.05 1.247 3.74 4.015 6.32 3.161 2.58-.854 2.75-4.449 2.78-5.645a29.11 29.11 0 0 0-.15-5.442c-.76-6.907-3.51-12.743-6.21-17.61-1.34-2.358-3.59-5.742-5.97-9.291-3.88-5.758-8.64-12.831-9.44-15.947 1.31-4.63 39.64-27.344 49.3-31.998 13.54-6.44 27.76-11.542 29.9-10.612 1.97 1.835 5.61 18.845 7.43 27.087l1.75 8.104c2.83 11.674 5.33 17.254 8.39 18.788a4.04 4.04 0 0 0 3.53.063c23.96-10.723 31.24-8.286 33.22-6.802 1.43 1.091 1.94 2.852 1.57 5.447-.67 4.682-8.42 6.61-19.14 9.338a181.841 181.841 0 0 0-22.11 6.602c-12.37 4.72-31.16 12.543-50.62 25.072-7.11 4.6-20.17 15.649-31.4 27.916-6.44 7.023-9.38 12.24-8.99 15.773a4.209 4.209 0 0 0 1.7 3.056c2.22 1.523 5.91-1.506 16.66-11.108l3.58-3.177c6.36-5.572 29.28-23.423 46.87-31.276 15.38-6.878 33.81-13.291 54.76-19.042 16.77-4.583 32.91-10.522 29.18-28.465M263.401 479.49c.237-12.203-3.569-22.076-11.419-29.619-11.774-11.471-32.044-16.592-60.244-15.365l-1.22.091c-6.539.302-11.189.582-12.392-.535-1.202-1.116-1.023-5.954-.914-12.214l.004-12.573c-.086-10.681 1.047-45.469 1.095-45.92l.011-.108-.234-5.086c-.58-18.67-1.188-33.492-17.541-35.214-15.358-1.618-44.502 1.254-89.114 8.784-.338.075-32.528 5.612-60.589 13.879-11.823 3.47-34.583 10.504-53.822 17.688-30.284 11.459-35.072 17.226-35.73 21.385-1.508 9.098 2.209 16.641 6.817 26.163 1.538 3.306 3.17 6.621 4.75 10.418 7.775 18.107 30.514 66.647 40.79 86.228 1.465 2.795 5.417 9.152 10.661 8.604 5.245-.548 7.054-7.288 7.606-9.541a58.595 58.595 0 0 0 1.972-10.37c1.411-13.399-1.376-25.59-4.483-35.929-1.562-5.021-4.42-12.363-7.459-20.07-4.969-12.516-11.052-27.883-11.276-34.115 4.403-8.228 86.413-35.379 106.63-40.197 28.324-6.589 57.358-10.369 61.04-7.718 2.959 4.288 2.818 38.018 2.855 54.383l-.043 16.074c.519 23.284 2.943 34.887 8.115 39.062a7.809 7.809 0 0 0 6.654 1.581c49.817-10.392 62.609-2.758 65.747.873 2.251 2.657 2.49 6.203.715 10.967-3.214 8.589-18.68 9.035-40.116 9.764a351.245 351.245 0 0 0-44.612 3.349c-25.392 3.817-64.215 10.856-106.274 26.53-15.366 5.768-44.678 21.291-71.028 39.875-15.108 10.637-22.842 19.3-23.563 26.155a8.113 8.113 0 0 0 1.956 6.493c3.56 3.801 11.815-.406 36.161-14.141l8.085-4.539c14.366-7.918 65.163-32.242 101.734-39.833 31.979-6.66 69.546-11.175 111.618-13.393 33.66-1.737 66.676-6.307 67.054-41.835M1282.48 634.303c-18.11 23.617-3.26 91.016 2.82 114.987 5.12 20.704 7.42 41.232 18.44 40.312 11.03-.92 10.74-23.156 9.67-44.786-1.07-21.631-5.57-51.36-6.22-62.799-.66-11.44 1.58-7.776 10.12-2.498 8.54 5.277 12.63 8.538 21.54 2.988 8.91-5.55 11.09-32.75 12.06-37.982.97-5.232-.59-11.225 9.51-.135 6.07 6.748 8.47 5.413 17.73 2.213 6.46-2.251 7.33-11.163 9.71-18.138 2.75-8.551 2.05-15.827 9.08-11.06 7.03 4.767 8.5 6.339 14.68 2.837 6.17-3.502 3.6-16.95.85-28.874-2.58-11.251-8.7-28.27-26.15-19.386-6.59 3.287-7.92 10.946-10.8 18.776-2.88 7.831-3.72 16.523-17.09 6.115-3.49-2.915-9.46-9.065-18-4.929-3.91 2.089-8.16 14.505-10.17 22.397-2.01 7.891-5.16 23.473-9.11 24.817-9.9 3.374-28.38-18.323-38.59-4.81m141.17 40.838c-18.38 8.628-41.76 31.023-53.76 46.217-11.02 14.127-15.38 21.389-20.38 41.7-2.73 11.662 6.4 15.83 11.85 6.816a150.69 150.69 0 0 1 29.07-34.166c13.42-11.999 29.62-16.268 48.9-22.365 18.49-6.032 21.6-21.817 15.94-29.595-8.6-12.005-24.08-12.049-31.62-8.607" />
        <path
            d="M1887.09 697.16c7.4-15.852 8.15-31 2.24-45.443-8.76-21.87-32.35-40.354-70.01-55.126l-1.65-.588c-8.74-3.403-15-5.737-15.93-7.898-.92-2.162 2.12-8.397 5.9-16.536l7.31-16.472c6.09-14.045 27.78-58.97 28.1-59.533l.08-.136 2.65-6.8c10.08-24.8 17.9-44.575-2.53-56.33-19.18-11.04-59.04-24.204-121.87-40.25-.48-.099-45.88-11.54-87.45-17.007-17.51-2.321-51.41-6.325-80.8-8.087-46.33-2.574-55.96 2.201-59.23 7.268-7.27 11.045-6.78 23.087-6.27 38.241.1 5.225.31 10.516.17 16.409-.33 28.243 1.27 105.052 3.36 136.678.3 4.513 1.79 15.138 8.98 17.466 7.19 2.329 13.47-5.452 15.5-8.083a83.892 83.892 0 0 0 8.61-12.442c9.63-16.738 13.06-34.331 15-49.683.87-7.486 1.39-18.767 1.88-30.63.76-19.285 1.72-42.955 5.04-51.25 10.55-8.224 133.78 3.834 163.07 9.264 40.94 7.818 81.18 19.731 84.46 25.343 1.39 7.337-18.39 51.451-27.85 72.916l-9.39 21.037c-12.84 30.81-16.41 47.422-12.06 55.897a11.287 11.287 0 0 0 3.22 3.867 11.187 11.187 0 0 0 4.59 2.069c71.31 15.319 83.63 32.752 85.64 39.332 1.4 4.789-.34 9.575-5.44 14.786-9.2 9.387-29.72.988-58.23-10.508a503.886 503.886 0 0 0-60.4-21.524c-35.49-9.747-90.45-23.074-154.66-26.967-23.49-1.366-70.91 1.947-116.23 10.993-25.98 5.162-41.14 12.022-46.07 20.585a11.727 11.727 0 0 0-1.66 4.689c-.21 1.665-.05 3.355.45 4.955 2.46 7.049 15.72 6.33 55.6 2.475l13.23-1.252c23.42-2.03 104.11-4.398 156.44 6.898 45.77 9.848 97.62 25.752 154.03 47.284 45.11 17.276 91.03 30.464 112.16-15.869" />
    </g>
</svg>