<svg xmlns="http://www.w3.org/2000/svg" width="165" height="56" fill="none"><path fill="#fff" d="M76.674 6.76a7.476 7.476 0 0 0-2.012-1.211 5.372 5.372 0 0 0-1.954-.4 3.155 3.155 0 0 0-1.953.57 1.762 1.762 0 0 0-.757 1.466c-.015.385.121.76.381 1.045.278.295.61.535.977.708.444.212.907.386 1.382.517.517.147 1.025.308 1.528.489 2.017.678 3.492 1.572 4.424 2.7a6.602 6.602 0 0 1 1.402 4.395 8.64 8.64 0 0 1-.576 3.292 6.97 6.97 0 0 1-1.797 2.534 8.394 8.394 0 0 1-2.896 1.636 12.137 12.137 0 0 1-3.907.581 14.303 14.303 0 0 1-8.346-2.671l2.642-4.976a10.63 10.63 0 0 0 2.74 1.821c.839.389 1.751.594 2.676.601a3.179 3.179 0 0 0 2.251-.693 2.135 2.135 0 0 0 .552-2.51 2.017 2.017 0 0 0-.63-.728 4.882 4.882 0 0 0-1.148-.61c-.488-.191-1.044-.401-1.718-.63a37.683 37.683 0 0 1-2.344-.836 7.432 7.432 0 0 1-2.047-1.21 5.772 5.772 0 0 1-1.465-1.91 6.73 6.73 0 0 1-.546-2.93 8.384 8.384 0 0 1 .58-3.199A7.086 7.086 0 0 1 65.75 2.16 7.237 7.237 0 0 1 68.334.568 9.684 9.684 0 0 1 71.75 0c1.245.01 2.483.175 3.687.489a16.35 16.35 0 0 1 3.682 1.43l-2.446 4.84ZM98.444 20.282h-8.849l-1.421 4.136h-6.602L90.64.598H97.4l9.068 23.82h-6.602l-1.421-4.136Zm-1.646-4.707-2.779-7.931-2.783 7.93h5.562ZM114.417.597v12.956c0 .693.024 1.406.078 2.134a5.87 5.87 0 0 0 .488 1.953 3.296 3.296 0 0 0 1.231 1.455 4.393 4.393 0 0 0 2.402.557c.84.054 1.677-.14 2.408-.557a3.42 3.42 0 0 0 1.245-1.435 5.624 5.624 0 0 0 .488-1.954c.054-.727.079-1.465.079-2.134V.597h6.148v13.81c0 3.709-.848 6.416-2.545 8.121-1.696 1.706-4.3 2.558-7.813 2.554-3.516 0-6.12-.85-7.813-2.554-1.693-1.702-2.556-4.41-2.589-8.12V.597h6.193ZM133.97.597h9.166a10.805 10.805 0 0 1 4.566.977 12.473 12.473 0 0 1 3.726 2.602 12.045 12.045 0 0 1 2.51 3.795 11.709 11.709 0 0 1 0 9.039 12.125 12.125 0 0 1-2.495 3.804 12.391 12.391 0 0 1-3.731 2.622c-1.442.658-3.011.99-4.595.977h-9.147V.597Zm6.192 18.557h1.426a7.567 7.567 0 0 0 2.872-.489 6.115 6.115 0 0 0 2.134-1.382 5.993 5.993 0 0 0 1.328-2.095c.312-.855.467-1.76.459-2.67a7.417 7.417 0 0 0-.488-2.652 6.215 6.215 0 0 0-1.343-2.12 6.123 6.123 0 0 0-2.134-1.387 7.617 7.617 0 0 0-2.842-.488h-1.426l.014 13.283ZM164.999.597h-6.192v23.826h6.192V.597ZM82.153 31.27 77.43 43.926l-4.76-12.658h-6.11l-4.034 23.738h6.144l2.05-13.663 5.324 13.663H78.5l5.61-13.663 2.047 13.663H92.3L88.267 31.27h-6.114ZM108.108 38.292l2.769 7.906h-5.542l2.773-7.906Zm-3.369-7.023-9.04 23.748h6.583l1.412-4.131h8.819l1.416 4.131h6.608l-9.064-23.748h-6.734ZM124.98 31.27h9.132c1.57-.011 3.123.322 4.551.976 1.387.63 2.645 1.51 3.711 2.598a12.013 12.013 0 0 1 2.505 3.785c.608 1.428.918 2.965.914 4.517a11.6 11.6 0 0 1-.894 4.488 12.04 12.04 0 0 1-2.49 3.799 12.29 12.29 0 0 1-3.717 2.613 10.856 10.856 0 0 1-4.58.976h-9.132V31.27Zm6.172 18.517h1.417a7.558 7.558 0 0 0 2.866-.488 6.128 6.128 0 0 0 2.124-1.382 5.975 5.975 0 0 0 1.324-2.095 7.575 7.575 0 0 0 .459-2.666 7.32 7.32 0 0 0-.489-2.642 5.922 5.922 0 0 0-3.467-3.497 7.521 7.521 0 0 0-2.832-.488h-1.416l.014 13.258ZM151.493 31.27v23.747H165v-5.23h-7.334v-4.092h6.924v-5.23h-6.924v-3.966H165v-5.23h-13.507ZM0 .05v54.962h54.972V.05H0Zm40.781 25.813a71.793 71.793 0 0 1 4.65 6.837 213.18 213.18 0 0 1-3.42 5.728 88.901 88.901 0 0 0-5.137-7.422c-1.655-2.178-5.894-7.028-5.957-7.106v23.196H24.04v-23.22c-.069.073-4.307 4.927-5.963 7.105-3.267 4.346-5.108 7.423-5.108 7.423a159.25 159.25 0 0 1-3.418-5.728 72.206 72.206 0 0 1 4.644-6.837c1.319-1.734 4.512-5.338 5.308-6.236a45.762 45.762 0 0 0-5.943 1.465 30.428 30.428 0 0 0-3.418 1.353c-.723.337-1.109.551-1.109.551a36.5 36.5 0 0 1 1.621-4.986s.362-.258 1.04-.659a24.419 24.419 0 0 1 3.21-1.553 32.577 32.577 0 0 1 5.517-1.636c-.063-.049-1.42-1.137-1.953-1.465-2.442-1.592-3.418-1.079-3.418-1.079a18.667 18.667 0 0 1 3.696-2.114c.177-.092.366-.16.562-.2a4.449 4.449 0 0 1 1.846 0c.923.175 3.57 1.416 3.613 1.464.044.05.127-1.225.171-1.65.127-1.23.4-1.158.616-1.177H29.5c.22 0 .489-.054.616 1.177.044.425.17 1.611.17 1.65 0 .04 2.691-1.264 3.614-1.465a4.444 4.444 0 0 1 1.846 0c.196.041.385.109.562.2a18.841 18.841 0 0 1 3.653 2.135s-.977-.513-3.419 1.079c-.532.347-1.89 1.436-1.953 1.465 1.883.381 3.727.929 5.513 1.636 1.107.438 2.179.957 3.209 1.553.678.4 1.045.659 1.045.659a37.2 37.2 0 0 1 1.602 4.996s-.386-.215-1.11-.552a30.03 30.03 0 0 0-3.417-1.353 45.687 45.687 0 0 0-5.939-1.465c.782.894 3.98 4.498 5.29 6.231Z"/></svg>