<svg width="73" height="82" viewBox="0 0 73 82" fill="none" xmlns="http://www.w3.org/2000/svg">
<path d="M72.3221 40.3769C72.2372 39.928 72.0757 39.4971 71.8447 39.1031L70.5461 37.0434L71.3812 36.6834C70.2128 29.6508 67.0382 23.1062 62.2396 17.838L61.6402 17.1861C61.6402 17.0241 61.5463 16.2962 61.5284 16.2162C61.2655 15.0318 60.5134 14.0145 59.4587 13.4166C59.3828 13.3746 58.5977 13.0387 58.5897 13.0367C58.0636 12.9027 57.5299 12.8006 56.9915 12.7307C56.8337 12.7207 56.6719 12.7147 56.502 12.7147L56.2024 12.5027C54.0817 11.0114 51.804 9.75743 49.4101 8.76326V8.76326C49.436 8.35132 49.6099 6.85152 49.6099 6.83952C49.6398 6.63955 49.7797 5.78367 49.8096 5.5977C49.8096 5.5577 50.2531 3.70796 50.3131 3.50398L50.5568 2.6721L50.0294 1.98219C49.7237 1.58225 49.4301 1.1983 45.6723 0.582385C43.1728 0.169558 40.6421 -0.0244826 38.1089 0.00246502V0.00246502C25.2814 0.226434 16.0139 7.65941 15.6263 7.98137L14.1081 9.2212C14.1081 9.2212 16.1058 11.1669 16.6432 11.9048C13.5329 13.9495 10.7543 16.4597 8.40451 19.3478L5.12223 23.7192C5.06829 23.7692 5.01635 23.8172 4.9684 23.8692L4.95642 23.8812C4.91047 23.9332 4.6188 24.3011 4.60681 24.3171C4.55287 24.3911 3.63591 25.7969 3.62193 25.8209C3.60794 25.8449 3.24835 26.5768 3.22238 26.6208C3.19641 26.6648 2.84081 28.0066 2.82283 28.0546C2.80485 28.1026 2.74292 28.7945 2.74092 28.8065L2.22751 30.2303C0.748437 34.3346 -0.00531485 38.6654 2.82077e-05 43.0285C2.82077e-05 53.0732 3.85766 62.4659 10.8597 69.4749C12.511 71.1302 14.3172 72.6228 16.2536 73.9323C15.4842 74.8086 15.2996 76.055 15.7818 77.1171C16.2641 78.1792 17.3236 78.8596 18.4891 78.8556C20.0577 78.8725 21.3586 77.6444 21.4338 76.076C26.0286 78.5617 31.2546 79.2076 35.1342 79.2756C35.6936 80.494 36.9392 81.2475 38.277 81.1765C39.6148 81.1055 40.7738 80.2245 41.2014 78.9536C41.2014 78.9276 41.2014 78.9056 41.2014 78.8816C43.5795 78.4214 45.9082 77.7343 48.1555 76.8299C48.582 77.6816 49.5373 78.1284 50.4636 77.9093C51.3899 77.6902 52.0445 76.8628 52.0451 75.91C52.0462 75.6034 51.9779 75.3005 51.8453 75.0241C52.4445 74.6876 53.0116 74.2967 53.5394 73.8563C53.8773 73.5452 54.135 73.1568 54.2906 72.7245C55.4207 72.8699 56.5279 72.3239 57.1015 71.3384C57.675 70.3529 57.6034 69.1194 56.9196 68.2071C56.9196 68.2071 56.4661 67.6172 55.8967 66.8833C56.1512 66.8262 56.4005 66.748 56.6419 66.6493C57.0081 66.9463 57.4329 67.1623 57.8885 67.2832C58.7295 67.5232 59.6585 67.2672 60.4396 66.9173C61.2677 67.3949 62.1903 67.6851 63.1425 67.7671C63.2914 67.7998 63.4437 67.8139 63.596 67.8091C64.9182 67.9188 66.215 67.4004 67.0981 66.4093C67.8486 65.5433 68.2764 64.4438 68.3087 63.2978C68.3102 63.139 68.2975 62.9803 68.2707 62.8238C68.1442 62.1676 67.7965 61.5746 67.2858 61.144C70.3291 55.5933 71.92 49.3622 71.9106 43.0305L71.8926 41.8307L72.2582 41.6307C72.2582 41.6307 72.3301 40.3989 72.3301 40.3949" fill="white" style="fill:white;fill:white;fill-opacity:1;"/>
<path fill-rule="evenodd" clip-rule="evenodd" d="M35.2592 29.4467C35.6368 29.9626 36.364 29.3627 36.364 29.3627L36.374 29.3567C36.4078 29.3387 36.4437 29.319 36.482 29.2981C36.9361 29.0494 37.7229 28.6188 39.3406 28.5708C40.3646 28.5362 41.2748 28.8227 42.0457 29.0654C42.5667 29.2294 43.0241 29.3734 43.41 29.3847C44.5907 29.4147 44.4688 28.7548 43.8096 28.3368C42.3552 27.415 40.1477 26.4471 38.6294 26.5371C37.3169 26.6191 35.8905 27.9889 35.491 28.5148C35.4371 28.5839 35.3769 28.6429 35.3201 28.6986C35.1223 28.8924 34.9659 29.0458 35.2592 29.4467ZM31.6553 32.5882C31.893 32.9182 31.2757 33.3181 31.2757 33.3181V33.3261C31.2243 33.3451 31.1766 33.3648 31.1314 33.3835C30.8961 33.4807 30.728 33.5501 30.4347 33.3521C30.0851 33.1162 28.7466 32.8902 28.0174 32.8302C27.2901 32.7704 26.0459 33.5004 25.7522 33.6728L25.75 33.6741C25.4603 33.8441 25.1087 34.05 25.0828 33.8741C25.0768 33.8336 25.0421 33.7764 24.9991 33.7054C24.8552 33.4678 24.6183 33.0768 25.0568 32.6502C26.5771 31.1664 27.4121 30.9125 28.401 31.0505C29.3899 31.1884 31.4176 32.2583 31.6553 32.5882Z" fill="#E73B2A" style="fill:#E73B2A;fill:color(display-p3 0.9059 0.2314 0.1647);fill-opacity:1;"/>
<path fill-rule="evenodd" clip-rule="evenodd" d="M55.5357 69.2337C55.9064 69.7307 55.8044 70.4344 55.3079 70.8055C54.8114 71.1766 54.1084 71.0745 53.7377 70.5775L50.4874 66.3481C50.1172 65.8511 50.2196 65.1479 50.7161 64.7773C51.2126 64.4068 51.9152 64.5093 52.2853 65.0063L55.5357 69.2337ZM37.1804 80.0862C37.6811 80.084 38.0858 79.6769 38.0854 79.1757C38.085 78.6745 37.6798 78.268 37.1791 78.2665C36.6784 78.265 36.2708 78.6692 36.2675 79.1703C36.2686 79.6724 36.6749 80.0791 37.1764 80.0802L37.1804 80.0862ZM39.1402 78.0325C39.6422 78.0325 40.0492 78.4399 40.0492 78.9424C40.0492 79.4449 39.6422 79.8522 39.1402 79.8522C38.8991 79.8522 38.6679 79.7564 38.4975 79.5858C38.327 79.4151 38.2312 79.1837 38.2312 78.9424C38.2312 78.4399 38.6382 78.0325 39.1402 78.0325ZM49.9799 76.8087C50.4817 76.8076 50.8877 76.3997 50.8869 75.8975C50.8862 75.3952 50.479 74.9886 49.9773 74.9889C49.4755 74.9893 49.069 75.3965 49.069 75.8988C49.069 76.1405 49.165 76.3722 49.3359 76.5429C49.5068 76.7136 49.7385 76.8092 49.9799 76.8087ZM49.8741 66.7461L52.577 71.1654L52.575 71.1634C52.8567 71.6208 52.7727 72.2142 52.3752 72.5753C51.7939 73.1192 47.6326 75.9208 40.5266 77.2486C38.7806 77.5726 28.3504 78.6124 20.9368 73.7731C19.4685 72.8152 19.86 71.6514 20.0059 71.2514C20.1517 70.8515 20.8769 69.4477 21.704 69.4837C22.531 69.5197 22.8626 69.9956 22.7987 70.3196C22.7116 70.6097 22.5355 70.8651 22.2953 71.0495L22.2952 71.0496C22.1412 71.1837 21.5283 71.7175 22.1415 72.1993C22.7548 72.6812 27.7451 75.2989 34.4056 75.6208C34.6469 75.5946 34.8238 75.3812 34.8051 75.1389V70.8955C34.8305 70.296 35.3234 69.823 35.9229 69.823C36.5223 69.823 37.0153 70.296 37.0406 70.8955V75.1149C37.0406 75.4429 37.2364 75.5288 37.3363 75.5288C37.8097 75.4949 38.3271 75.4489 38.8745 75.3829C38.9744 75.3749 39.1662 75.3009 39.1083 75.0129C39.0643 74.8129 38.9884 74.425 38.9884 74.425C38.8525 74.0418 38.9352 73.6149 39.2044 73.3104C39.4735 73.0058 39.8867 72.8716 40.2833 72.9599C40.6798 73.0482 40.9972 73.345 41.112 73.7351C41.112 73.7351 41.2558 74.359 41.3118 74.673C41.3139 74.7669 41.3599 74.8544 41.436 74.9094C41.5121 74.9644 41.6096 74.9805 41.6993 74.9529C43.2435 74.6597 44.7609 74.2397 46.2362 73.6971C46.3303 73.6598 46.4042 73.5844 46.4397 73.4895C46.4751 73.3946 46.4686 73.2891 46.422 73.1992C46.3021 72.9252 46.0544 72.4093 46.0544 72.4093C45.7317 71.883 45.8962 71.1945 46.422 70.8715C46.9477 70.5484 47.6355 70.7132 47.9582 71.2394L48.4737 72.3373C48.5815 72.5793 48.7773 72.5513 48.9551 72.4613C49.3427 72.2473 49.6483 72.0713 49.9879 71.8474C50.2676 71.7014 50.0399 71.3014 50.0399 71.3014L47.9702 67.9159C47.6475 67.3896 47.8121 66.7012 48.3378 66.3781C48.8635 66.0551 49.5513 66.2198 49.8741 66.7461Z" fill="#E73B2A" style="fill:#E73B2A;fill:color(display-p3 0.9059 0.2314 0.1647);fill-opacity:1;"/>
<path fill-rule="evenodd" clip-rule="evenodd" d="M19.1869 77.5804C19.862 77.297 20.2997 76.6342 20.2956 75.9015C20.2994 75.4209 20.1096 74.9591 19.769 74.6204C19.4283 74.2817 18.9657 74.0947 18.4857 74.1018C17.7537 74.1026 17.0944 74.5451 16.8158 75.2227C16.5372 75.9002 16.6942 76.6791 17.2135 77.1954C17.7328 77.7118 18.5119 77.8638 19.1869 77.5804ZM18.5007 77.4032C17.6624 77.4116 16.9746 76.7407 16.9614 75.9015H16.9634C16.9536 75.4917 17.1103 75.0955 17.3976 74.8034C17.6849 74.5113 18.0782 74.3484 18.4877 74.3517C19.3261 74.3529 20.0061 75.0317 20.0097 75.871C20.0133 76.7102 19.3391 77.3948 18.5007 77.4032Z" fill="#E73B2A" style="fill:#E73B2A;fill:color(display-p3 0.9059 0.2314 0.1647);fill-opacity:1;"/>
<path fill-rule="evenodd" clip-rule="evenodd" d="M18.6069 74.9961H17.7539V76.8038H17.9976V76.0279H18.585C18.8187 76.0279 18.8507 76.1779 18.8866 76.3559C18.9012 76.4278 18.9036 76.5027 18.9059 76.5712C18.9092 76.6723 18.9121 76.7597 18.9525 76.8038H19.2222C19.1412 76.6503 19.1045 76.4772 19.1164 76.3039C19.0984 76.1299 19.0544 75.972 18.8447 75.93C19.0462 75.8722 19.178 75.6789 19.1583 75.47C19.1583 75.1821 18.9486 74.9961 18.6069 74.9961ZM18.9086 75.508C18.9086 75.774 18.7168 75.832 18.4891 75.832H17.9876V75.2001H18.587C18.6727 75.1889 18.7589 75.2171 18.8214 75.277C18.8839 75.3368 18.916 75.4218 18.9086 75.508Z" fill="#E73B2A" style="fill:#E73B2A;fill:color(display-p3 0.9059 0.2314 0.1647);fill-opacity:1;"/>
<path d="M30.2088 72.1842C30.2088 72.1842 30.2088 71.9202 29.8212 71.8502C29.4336 71.7802 28.1511 71.9282 27.4659 72.2142C26.7806 72.5001 26.3252 72.5001 25.9316 72.2022C25.538 71.9042 25.56 71.4983 25.8157 71.2583C26.0985 70.9713 26.488 70.8154 26.8905 70.8284C27.0903 70.8284 27.0903 70.7864 27.1562 70.6624C27.2221 70.5384 27.2241 69.9565 26.6448 69.4845C26.6148 69.4625 28.0112 68.8006 29.973 69.4585C29.973 69.4585 29.3637 70.0585 29.4876 70.6584C29.5795 71.1123 29.8492 70.9863 30.019 70.8883C30.1888 70.7904 30.9499 70.4884 31.2516 70.7484C31.5532 71.0083 30.7142 71.9362 30.2088 72.1862" fill="#E73B2A" style="fill:#E73B2A;fill:color(display-p3 0.9059 0.2314 0.1647);fill-opacity:1;"/>
<path d="M29.4784 71.1034C29.1434 70.8869 28.7523 70.7736 28.3537 70.7774C26.9692 70.8074 26.9792 71.2874 27.0192 71.4113C27.0971 71.6753 27.9321 71.9373 29.4784 71.1034" fill="#F8E931" style="fill:#F8E931;fill:color(display-p3 0.9725 0.9137 0.1922);fill-opacity:1;"/>
<path fill-rule="evenodd" clip-rule="evenodd" d="M35.0113 44.3416C35.1481 43.294 35.9782 42.7399 36.2565 42.554C36.3158 42.5145 36.35 42.4916 36.3472 42.4842C34.0878 36.947 36.1474 31.8617 36.3172 31.5438C36.487 31.2258 36.7767 30.8438 37.3041 30.8758C38.7305 30.9618 40.3007 32.1617 41.1697 34.0174C42.5017 36.8559 43.4503 39.8592 43.9905 42.9482C43.9905 42.9482 42.1027 42.5622 41.1937 42.4842C37.1183 42.1403 35.7818 44.356 36.0715 45.2839C37.0983 48.5814 41.5953 47.9095 42.2106 47.6435C42.8259 47.3776 43.2534 47.4656 43.2274 48.1955C43.2211 48.3564 43.2184 48.5302 43.2158 48.7074C43.2026 49.5898 43.1881 50.5567 42.704 50.4352C42.2265 50.3172 42.1247 48.8354 42.1247 48.8354C42.1247 48.8354 39.5156 48.8714 39.4757 48.9234C36.3492 52.6868 32.6134 53.9007 32.6134 53.9007C32.6134 53.9007 33.2008 55.4705 36.7987 55.6464C44.5018 56.0332 49.3218 47.7189 49.6358 47.1772C49.6465 47.1588 49.6519 47.1494 49.6521 47.1496C49.9378 47.3756 50.3773 47.5256 50.4093 46.9176C50.4412 46.3097 50.4652 43.976 50.4652 43.976C50.6844 44.0665 50.9085 44.1446 51.1364 44.21C51.1964 42.6102 50.7848 39.6666 50.7848 39.6666C50.7848 39.6666 51.6858 40.1866 51.6918 40.1086C51.6866 38.4436 51.4506 36.7873 50.9906 35.1873C50.9906 35.1873 51.7398 35.1873 51.6858 35.1573C51.1964 34.8373 49.4464 31.6957 49.4464 31.6957C49.7147 31.5819 49.9768 31.4537 50.2315 31.3118C48.0839 29.1801 48.4335 27.6743 48.4335 27.6743C48.4335 27.6743 49.1107 27.8043 49.1027 27.7943C48.4764 27.3095 48.034 25.3886 47.8683 24.6689C47.8289 24.4979 47.8051 24.3947 47.7982 24.3947C41.4434 24.1808 37.5039 25.2986 37.5039 25.2986C37.5039 25.2986 46.4757 18.9435 49.6521 16.9358C54.5745 13.8162 57.3894 14.2321 58.6419 14.936C59.8945 15.6399 60.5338 17.4677 59.2253 19.3354C57.9168 21.2032 52.8945 25.3766 52.8565 25.3566C51.6632 24.9323 50.4217 24.6589 49.1607 24.5427C49.1067 26.9584 51.7777 29.494 51.7777 29.494C51.7777 29.494 50.4652 29.3841 50.4712 29.406C50.8248 31.0058 52.387 32.9836 52.387 32.9836L51.4601 33.0156L51.486 33.0435C52.1557 34.201 52.6651 35.4442 53.0003 36.739C53.0003 36.739 53.4958 36.827 53.4958 36.767C53.4958 36.1251 51.8117 33.3335 51.8117 33.3335L52.9424 33.3015C52.9424 33.3015 51.2423 30.1759 51.3442 30.1599C57.3374 29.3601 62.9051 31.9877 66.0935 34.7373C69.3778 37.5749 70.6683 40.5545 70.6244 40.5805C58.8775 47.2093 52.639 55.3202 52.1048 56.0147C52.0789 56.0485 52.0664 56.0647 52.0674 56.0624C53.1681 54.2886 53.5817 49.7592 53.5537 49.7772C51.2104 51.293 50.1576 51.233 50.1576 51.233C51.2048 50.324 51.9886 49.1498 52.427 47.8335C52.9004 46.3097 52.7486 43.4681 52.7486 43.4681C52.9925 43.6146 53.2439 43.7481 53.5018 43.8681C53.5837 43.4541 53.6716 40.4065 53.6716 40.4065C53.7875 40.4628 53.907 40.5116 54.0292 40.5525C53.6116 37.5229 52.7486 37.153 52.7486 37.205C52.8026 40.6565 52.4849 42.3583 52.4849 42.3583C52.4849 42.3583 51.9635 42.1343 51.9635 42.1583C52.0589 43.8352 51.9245 45.5172 51.564 47.1576C51.4363 47.0524 51.3029 46.9542 51.1644 46.8636C50.8827 48.3554 50.0876 50.4432 50.0876 50.4432L49.8559 49.7492C49.8559 49.7492 49.8839 49.2133 49.4743 49.7173C43.6169 57.0002 38.1946 56.833 36.7726 56.7892L36.7427 56.7883C32.2956 56.6495 30.3268 54.8504 30.0347 54.5836C30.0113 54.5621 29.9986 54.5506 29.9964 54.5506C26.0009 54.5006 25.8251 54.0327 25.8351 54.0227C28.9775 51.317 29.0175 50.2132 29.0175 50.2132C22.9304 50.3752 20.3353 48.5294 20.3733 48.4934C22.5207 46.2583 24.2991 45.4413 24.8648 45.1814C24.9206 45.1557 24.9647 45.1355 24.996 45.1199C25.3457 44.9459 25.1699 44.6839 25.1699 44.6839C25.1699 44.6839 24.9701 43.8081 24.8522 43.3441C24.8066 43.0543 24.6496 42.7937 24.4147 42.6182C24.183 42.3863 24.2689 41.1604 24.2948 40.8725C24.3208 40.5845 24.2948 40.5785 24.125 40.5785C23.9552 40.5785 23.8354 40.4605 23.7734 40.1786C23.7356 40.0062 23.7321 39.5453 23.7291 39.1587C23.7272 38.913 23.7256 38.6973 23.7155 38.6048C23.7082 38.5375 23.7166 38.4828 23.724 38.4351C23.7428 38.3142 23.7545 38.2382 23.4838 38.1148C23.1867 37.9795 23.2668 37.6066 23.3281 37.3212L23.3281 37.3212C23.3447 37.2438 23.3599 37.173 23.3659 37.115C23.3939 36.843 23.252 36.763 23.0163 36.735C22.8162 36.7113 22.8119 36.6659 22.7797 36.3299C22.774 36.27 22.7673 36.2009 22.7586 36.1211C22.7381 35.9347 22.7393 35.7381 22.7405 35.5502C22.7426 35.2059 22.7446 34.8908 22.6127 34.7213C21.9715 33.9114 21.7997 33.2715 21.8536 33.2975C22.407 33.5755 22.4669 33.4435 22.4669 33.4435C22.4669 33.4435 22.4349 33.4115 22.4669 32.8296C22.4989 32.2477 23.0662 30.6299 23.0662 30.6299C23.0662 30.6299 22.1033 30.2659 22.0813 30.3059C21.4241 31.6272 19.3309 32.3304 18.9854 32.4465C18.9539 32.4571 18.9369 32.4628 18.9369 32.4636C18.7691 35.6272 17.2528 36.915 17.2528 36.915C17.4373 37.0916 17.6033 37.2866 17.7483 37.4969C18.1258 37.9929 17.4846 38.6328 17.4846 38.6328C17.4846 38.6328 14.6098 40.9605 13.6169 41.4864C12.6241 42.0123 11.9049 41.1344 11.9049 41.1344C11.9049 41.1344 10.944 42.1003 10.0709 41.8943C8.59262 41.5484 6.55493 40.2326 6.20333 39.8566C5.85173 39.4807 5.88569 38.8068 6.05949 38.4868C6.2333 38.1668 6.45904 37.205 6.34916 36.1011C6.30956 35.7033 6.10957 35.2176 5.85236 34.593C5.39597 33.4847 4.75944 31.9389 4.51924 29.67C4.35343 28.1282 4.98271 26.8144 5.24442 26.5244C5.36228 26.3939 5.46231 26.2215 5.58192 26.0154C5.7279 25.7639 5.90305 25.4621 6.17536 25.1246C6.55426 24.6551 7.02429 24.6862 7.2325 24.7C7.29654 24.7042 7.33581 24.7068 7.34004 24.6927C7.9973 22.293 9.46164 21.3732 10.4785 21.0512C11.4953 20.7292 12.9517 21.1952 12.9517 21.1952C12.9517 21.1952 13.3512 20.3813 14.8675 20.3233C16.7294 20.2513 18.5613 22.537 19.2286 23.5569C19.8958 24.5767 20.2594 26.3405 19.8958 27.1084C18.7727 29.4656 16.1842 29.5749 15.6133 29.599C15.5435 29.602 15.5038 29.6037 15.5008 29.608C14.2542 31.9417 12.0447 32.0497 12.0447 32.0497C12.0447 32.0497 11.4134 33.5435 9.80525 33.7954C8.46168 34.0096 7.82219 33.0523 7.45873 32.5082C7.27906 32.2393 7.16683 32.0713 7.07035 32.1957C6.92559 32.3822 7.17055 33.0313 7.46358 33.8078C7.76098 34.5958 8.10788 35.5151 8.14713 36.2151C8.20506 37.321 7.91539 38.4848 7.68166 38.7168C7.63557 38.7625 7.59414 38.7995 7.5602 38.8297L7.56018 38.8298C7.42204 38.953 7.40812 38.9654 7.70962 39.0087C8.65616 39.1501 9.23588 39.5425 9.6075 39.7939L9.60766 39.7941C9.69324 39.852 9.76778 39.9024 9.83322 39.9406C10.1828 40.1446 10.3267 39.8546 10.3267 39.8546C10.3267 39.8546 11.6372 38.6908 11.9548 38.3068C12.2725 37.9229 12.5082 38.3068 12.5082 38.3068C12.8306 38.6269 13.17 38.9293 13.525 39.2127C13.6453 39.2958 13.8043 39.2958 13.9246 39.2127L15.8144 37.8449C15.8144 37.8449 14.6378 36.691 14.7077 36.6451C17.4595 35.2502 17.0416 31.3583 16.9793 30.7785L16.9793 30.7785L16.9793 30.7784L16.9793 30.7783C16.9742 30.7306 16.9715 30.7054 16.9731 30.7059C20.0716 31.3518 20.8707 29.946 20.8448 29.924C20.3977 29.5666 19.969 29.1868 19.5602 28.7861C20.2982 28.0129 20.6874 26.9707 20.637 25.9025C20.5251 23.8528 18.9968 22.229 18.9968 22.229C18.9968 22.229 22.1932 19.8434 22.2092 19.8734C22.3293 20.1146 22.657 20.777 23.0201 21.5109C23.6292 22.742 24.3378 24.1743 24.3328 24.1568C20.7109 12.9703 16.7134 9.31481 16.7134 9.31481C16.7134 9.31481 25.7592 1.94383 38.1432 1.71586C43.6669 1.62187 48.7032 2.9037 48.6672 3.02568C46.6216 10.0247 48.2677 16.7318 48.2677 16.7318L48.2138 16.7638C46.375 18.229 41.2389 21.8324 38.5513 23.718L38.1312 24.0128C31.2953 28.8366 29.3501 29.5917 28.4888 29.9261L28.4887 29.9261L28.4886 29.9261L28.4885 29.9262C28.3859 29.966 28.2987 29.9999 28.2204 30.034C26.3661 30.8188 24.3753 30.6411 24.2972 30.6341L24.2948 30.6339C23.4638 32.3336 23.3639 33.4715 23.3639 33.4715C23.4525 33.4703 23.5407 33.4609 23.6276 33.4435C23.7575 33.4155 23.8274 33.5755 23.8274 33.5755C23.8274 33.5755 23.6955 35.2472 23.6496 35.4932C23.6036 35.7392 23.6316 35.7532 23.9532 35.7532C24.2749 35.7532 24.3887 35.9771 24.3368 36.3211C24.2849 36.6651 24.179 37.6629 24.179 37.6629C24.3066 37.654 24.4308 37.7067 24.513 37.8049C24.5952 37.903 24.6255 38.0346 24.5945 38.1588C24.5585 38.4368 24.5585 39.7286 24.5665 39.7286C24.8864 39.7788 25.1283 40.045 25.1479 40.3685C25.1339 40.5885 25.1339 42.1443 25.1479 42.1583C25.2152 42.2271 25.2811 42.2897 25.3425 42.348C25.5379 42.5337 25.6881 42.6763 25.6973 42.8422C25.7601 43.3428 25.8569 43.8385 25.9869 44.326C26.0868 44.632 26.1647 44.6339 26.1647 44.6339C26.1647 44.6339 26.4684 44.504 26.6022 44.434C26.7196 44.3726 26.6864 44.279 26.5971 44.0264C26.5845 43.9909 26.5708 43.9522 26.5563 43.9101C26.0688 42.5102 25.7212 40.5105 25.8351 39.0007C26.0069 36.759 27.0178 36.0411 27.5472 36.0311C28.6389 36.0175 29.3212 36.7539 29.8453 37.3195C29.9359 37.4174 30.0218 37.5101 30.1043 37.5929C32.4316 39.9486 32.8671 43.5141 32.8671 43.5141C33.2572 43.6446 33.8883 43.8987 34.3667 44.0912C34.7002 44.2254 34.9595 44.3298 35.0113 44.3416ZM51.3862 15.06C50.4367 14.4979 49.4577 13.9872 48.4535 13.5302C48.4535 13.5302 48.4155 12.4964 48.4535 11.8365C48.4914 11.1766 48.5274 10.2627 48.5274 10.2627C50.8925 11.222 53.1406 12.4485 55.2278 13.9182C54.6256 13.994 54.0299 14.115 53.4458 14.2801C52.7463 14.4983 52.0599 14.7567 51.3902 15.054L51.3862 15.06ZM19.8339 15.476C17.9422 16.6596 16.181 18.0405 14.5798 19.5954C14.1424 19.6069 13.709 19.6824 13.2933 19.8194C12.9775 19.9128 12.7027 20.111 12.5142 20.3813C11.5993 20.1472 10.6381 20.1665 9.73334 20.4373C12.1227 17.504 14.9735 14.9799 18.1738 12.9643C18.1738 12.9643 18.7132 13.5522 19.8639 15.482L19.8339 15.476ZM29.9744 63.2654C29.7127 62.7115 29.481 61.0817 29.6807 59.6819H29.6827C29.8885 58.2841 30.2661 57.7022 30.7316 57.1222C31.197 56.5423 31.6385 55.8404 30.5018 55.7544C30.1749 55.73 29.796 55.7688 29.3891 55.8103C28.5949 55.8915 27.6942 55.9836 26.8659 55.6384C25.6134 55.1165 24.133 54.1586 23.6376 52.9028C23.1422 51.647 22.441 51.223 21.8916 51.247C21.3422 51.271 21.3422 51.9469 21.3422 52.4709C21.3422 52.5779 21.3494 52.748 21.3583 52.9599C21.3931 53.7853 21.4548 55.2468 21.2243 56.1044C21.1299 56.4558 20.9796 56.9121 20.821 57.3939C20.493 58.3899 20.1293 59.4944 20.1495 60.0038C20.1795 60.7597 20.1416 62.4195 19.7979 63.1474C19.6907 63.3745 19.5099 63.6045 19.3107 63.8577L19.3107 63.8577C18.8715 64.4161 18.3436 65.0874 18.3216 66.089C18.2897 67.5448 18.6033 68.3647 19.3624 68.1207C19.913 67.9497 20.2477 67.528 20.6522 67.0183C21.0564 66.509 21.5303 65.9118 22.359 65.3891L22.4626 65.3238C23.5167 64.6588 24.7139 63.9035 27.6151 63.8473C28.3602 63.8346 28.7973 63.9523 29.1127 64.0371C29.3428 64.0991 29.508 64.1435 29.6807 64.1073C30.0903 64.0213 30.2361 63.8193 29.9744 63.2654ZM37.9314 57.3002C38.6085 57.3635 39.29 57.3635 39.9671 57.3002L39.9611 57.3082C41.226 57.1988 42.3209 56.3917 42.7955 56.0419C42.8328 56.0144 42.8663 55.9897 42.8958 55.9684C42.9472 55.9312 43.0025 55.8889 43.0623 55.8432C43.4716 55.5304 44.0887 55.0588 45.0753 54.9785C46.206 54.8865 49.3185 52.8968 50.1076 52.3789C50.1703 52.3377 50.2341 52.2952 50.2985 52.2523C51.0444 51.7548 51.8746 51.2013 52.1173 52.0609C52.309 52.7397 51.497 53.5822 50.9401 54.16C50.7308 54.3772 50.5576 54.5569 50.4872 54.6766C50.3405 54.9259 50.2974 55.448 50.2498 56.0235C50.2139 56.4589 50.1754 56.9248 50.0876 57.3262C49.9283 58.055 49.3816 58.7642 49.0505 59.1937C48.9583 59.3134 48.8828 59.4113 48.8371 59.4819L48.7914 59.5521C48.5705 59.891 48.1961 60.4654 48.2277 60.7897C48.2623 61.3349 48.0952 61.8738 47.7583 62.3035C47.4578 62.6424 47.4563 63.2967 47.4547 63.9797C47.4541 64.2277 47.4535 64.4794 47.4386 64.7212C47.3827 65.6291 46.4837 66.083 45.7246 66.029C45.2961 65.9985 44.5088 65.7139 43.7106 65.4254L43.7104 65.4253C43.0944 65.2026 42.4718 64.9775 42.0028 64.8652C41.5135 64.748 40.8089 64.7847 40.0545 64.8241C39.1486 64.8714 38.171 64.9225 37.408 64.7152C36.6329 64.5043 36.448 63.6544 36.2759 62.8633L36.2759 62.8632L36.2759 62.8632L36.2759 62.8631L36.2759 62.8631L36.2758 62.863L36.2758 62.8629L36.2758 62.8629L36.2758 62.8628L36.2758 62.8628C36.2292 62.6488 36.1836 62.4391 36.1275 62.2475C35.9161 61.46 36.0321 60.6204 36.4491 59.9198C36.6482 59.5802 36.7014 59.2384 36.7598 58.8625L36.7598 58.8625C36.7964 58.6275 36.835 58.3793 36.9126 58.1101C37.1143 57.4102 37.376 57.2682 37.9314 57.3002ZM49.5389 63.6104C49.7943 63.5573 49.8241 63.5511 49.8519 63.1754C49.8558 63.1225 49.8609 63.0724 49.8656 63.0252L49.8656 63.0252C49.8949 62.7359 49.9129 62.5574 49.5882 62.5075C49.2595 62.4905 48.9301 62.4905 48.6013 62.5075C48.2797 62.5395 48.1658 62.8914 48.1658 63.1214C48.1658 63.1298 48.1657 63.1383 48.1655 63.1469L48.1648 63.1693L48.163 63.2108V63.2108C48.153 63.4254 48.1416 63.6693 48.6013 63.6973C48.9149 63.7263 49.2312 63.6972 49.5343 63.6113L49.5389 63.6104ZM35.8677 57.2742C36.8307 57.2142 36.4171 58.2641 36.1854 58.846C36.1589 58.9126 36.1232 58.9952 36.0817 59.0914C35.7602 59.8361 35.0871 61.3953 35.5861 62.6315C36.1632 64.0812 35.9963 64.1447 35.7605 64.2344L35.7604 64.2344C35.7399 64.2422 35.719 64.2502 35.6979 64.2593C35.4342 64.3732 34.9728 64.1453 34.5952 63.9093C34.2176 63.6733 33.1968 63.8533 32.6174 64.2593C32.0381 64.6652 31.3688 64.2593 31.0792 64.0013C31.056 63.9806 31.0328 63.9603 31.0097 63.94C30.7441 63.707 30.4908 63.4848 30.4099 62.9494C30.3028 61.9052 30.2628 60.8552 30.2901 59.8059C30.316 58.73 31.5426 56.8703 31.8323 56.4863C32.122 56.1024 32.6774 56.6863 32.6774 56.6863C33.4645 57.2682 34.9128 57.3262 35.8737 57.2682L35.8677 57.2742ZM65.618 33.0175C66.3862 33.5319 67.1058 34.1156 67.7676 34.7613V34.7673C68.4518 35.4642 69.0923 36.2029 69.6854 36.979C68.5799 30.2742 65.5589 24.0332 60.9873 19.0095C60.9873 19.0095 60.6457 19.4774 60.1502 20.0773C59.7804 20.5059 59.3798 20.9069 58.9516 21.2772C61.973 24.6784 64.2445 28.6788 65.618 33.0175ZM4.76496 43.0142C4.76382 40.7176 5.00014 38.427 5.47016 36.1791L5.46816 36.1871C5.45352 35.9388 5.38537 35.6966 5.26839 35.4772C5.1541 35.2763 4.97969 34.7613 4.84043 34.3501C4.77036 34.1432 4.70919 33.9625 4.66907 33.8614C4.5492 33.5595 3.85998 30.8059 3.85998 30.8059C2.44961 34.7239 1.73038 38.8575 1.73439 43.0222C1.73439 52.6109 5.41422 61.5716 12.0947 68.2547C13.8863 70.0503 15.8701 71.643 18.01 73.004V69.3306C9.99704 63.5094 4.76496 53.8927 4.76496 43.0142ZM15.4249 44.556C15.3969 44.504 13.3532 55.4745 13.4491 62.8914C13.4491 62.8914 13.4491 62.9514 13.4591 63.0554H18.2077V64.2852H14.1643L13.4891 63.4854V63.5253C8.6266 57.8661 5.9736 50.6731 5.9736 43.0202C5.9736 42.195 6.0049 41.3737 6.0675 40.5565C7.30913 41.4872 8.70589 42.19 10.1928 42.6322C10.598 42.7527 10.9099 42.5567 11.2063 42.3705C11.4462 42.2198 11.6759 42.0754 11.9368 42.1103C12.2072 42.1465 12.4141 42.2243 12.5931 42.2916C12.8002 42.3695 12.9699 42.4334 13.1575 42.4023C13.4016 42.3618 14.0519 42.018 14.9397 41.5488C15.3233 41.346 15.7513 41.1198 16.21 40.8845C16.232 40.8725 16.0961 41.8183 16.0961 41.8183C16.0961 41.8183 20.9506 38.3788 22.7866 37.9789C22.7866 37.9789 22.7007 39.2867 22.7866 39.4927C22.8248 39.5844 22.904 39.6171 22.98 39.6484C23.0745 39.6873 23.1641 39.7243 23.1641 39.8706C23.1958 40.4484 23.2733 41.0228 23.3959 41.5884C23.4376 41.7009 23.5413 41.8073 23.6371 41.9056C23.7387 42.0098 23.8314 42.1049 23.8314 42.1883C23.8314 42.2206 23.8269 42.2839 23.821 42.3663L23.821 42.3665C23.7973 42.6974 23.7518 43.3348 23.8893 43.4981C23.9484 43.5683 24.018 43.6214 24.0851 43.6728C24.2131 43.7706 24.3325 43.8618 24.3548 44.052C24.3887 44.342 24.4407 44.8659 24.4407 44.8659C24.4407 44.8659 21.7957 46.3837 20.8448 47.3436C20.8448 47.3436 17.7323 45.6538 16.8593 45.3639C16.7371 45.3233 16.6269 45.2881 16.5269 45.2561C15.912 45.0597 15.682 44.9863 15.4329 44.546L15.4249 44.556ZM33.023 49.4673L33.0223 49.4674L33.033 49.4513L33.023 49.4673ZM33.0223 49.4674C32.0573 50.916 29.8066 52.3889 29.8066 52.3889C29.8066 52.3889 29.8026 52.4189 29.8925 52.4189C33.3021 52.4497 36.4808 49.7312 37.4104 48.9362L37.4108 48.9358L37.4111 48.9356L37.4119 48.9349C37.5083 48.8525 37.5803 48.7909 37.6258 48.7554C38.1092 48.3774 38.4688 48.6114 38.0253 49.1013C35.1212 52.3176 32.6196 52.9352 31.4594 53.2217L31.4593 53.2217L31.459 53.2218C31.3065 53.2594 31.1772 53.2914 31.0732 53.3228C29.2113 53.8667 27.655 53.4947 27.703 53.4667C28.8017 52.7728 30.5238 49.8672 30.5238 49.8672L33.0223 49.4674ZM35.4952 46.4109C35.566 46.8239 35.6506 47.3173 34.3135 47.6775C34.1586 47.7198 33.9712 47.7824 33.7497 47.8565L33.7491 47.8566L33.749 47.8567L33.7482 47.8569L33.7481 47.857L33.7477 47.8571L33.7476 47.8572C32.1018 48.4073 28.5732 49.5868 22.4789 47.7635C22.4789 47.7635 26.1947 44.384 34.3714 44.7359C34.9528 44.7579 35.4183 45.8418 35.4742 46.2777C35.4797 46.3209 35.4873 46.3653 35.4951 46.4107L35.4952 46.4109ZM40.8821 39.2027C40.8821 39.2027 40.3547 38.3628 40.1829 38.1588C40.011 37.9549 39.8972 38.0449 39.8372 38.3348L39.8286 38.3762C39.7587 38.7077 39.5693 39.6066 40.095 39.6946C40.2996 39.7268 40.5085 39.7193 40.7103 39.6726C40.7103 39.6726 41.2916 39.8186 40.8821 39.2027ZM37.7416 31.6957C38.2291 31.8497 39.0501 32.9216 39.0501 32.9216V32.9276C39.0501 32.9276 38.0752 33.1675 37.8934 33.9174C37.0818 37.308 38.0875 40.1738 38.3538 40.9326C38.3824 41.0143 38.4025 41.0715 38.4109 41.1024C38.4483 41.1992 38.4406 41.3076 38.39 41.3981C38.3394 41.4886 38.2511 41.5517 38.1492 41.5704C38.115 41.5825 38.0803 41.6083 38.0444 41.6351C37.9207 41.7272 37.782 41.8305 37.5978 41.4244C35.744 37.281 36.9616 33.1128 37.151 32.4643L37.1623 32.4256C37.1747 32.3827 37.1865 32.3408 37.1979 32.3003C37.3188 31.8708 37.3984 31.5879 37.7416 31.6957ZM28.6259 37.5269C28.449 37.2805 28.2483 37.0521 28.0266 36.845C27.6368 36.4769 27.533 36.7593 27.4738 36.9204L27.4658 36.942L27.4593 36.959C26.5055 39.3158 27.0415 41.1489 27.4118 42.4155L27.4118 42.4155C27.4604 42.5815 27.5061 42.7378 27.5452 42.8842C27.8149 43.9041 27.9687 43.924 28.4761 43.8581C28.8617 43.8061 28.7798 43.5981 28.6759 43.3801C28.3169 42.7367 28.0856 42.0298 27.9947 41.2984C27.5332 38.7648 28.6759 37.9789 28.6759 37.9789C28.8337 37.7609 28.584 37.5549 28.584 37.5549L28.6259 37.5269ZM29.9345 40.7785C30.1602 40.9785 30.6357 42.0403 30.6357 42.0403L30.6397 42.0523C30.6708 42.4635 30.3681 42.4835 30.1326 42.499L30.1143 42.5002C29.8765 42.5162 29.6228 42.4243 29.6228 42.2243C29.6228 42.1715 29.6216 42.0812 29.62 41.9721V41.9719C29.6158 41.6672 29.6096 41.2158 29.6228 41.0244C29.6408 40.7645 29.7087 40.5785 29.9345 40.7785ZM7.20504 29.0224L7.20505 29.0223C7.31373 28.7255 7.41828 28.4399 7.84548 28.4102C8.39332 28.3732 8.36645 29.5535 8.35244 30.1691C8.35056 30.2516 8.34891 30.324 8.34891 30.3819C8.34891 30.8718 8.83636 31.8277 9.52758 31.9137C10.2188 31.9997 9.99505 29.894 9.92712 29.2681C9.8188 28.2003 8.67277 27.1325 8.3964 26.875L8.39629 26.8749C8.372 26.8523 8.35444 26.8359 8.34491 26.8264C7.31643 25.7969 6.9481 26.8528 6.78801 27.3116C6.77241 27.3564 6.75879 27.3954 6.74672 27.4263C6.47104 28.1162 6.3232 29.702 6.64484 29.85C6.9235 29.9745 6.99318 29.7132 7.0679 29.433C7.09282 29.3396 7.11829 29.2441 7.15226 29.1601L7.15626 29.1521C7.17328 29.1091 7.1892 29.0656 7.20504 29.0224ZM14.0165 26.7004C14.1379 27.065 14.1491 27.4574 14.0484 27.8283L14.0524 27.8303L14.0424 27.859L14.0322 27.8886L14.0321 27.8888C13.8923 28.2947 13.3716 29.8066 12.3703 29.886C11.9708 29.916 11.2896 29.498 10.9719 28.4022C10.9045 28.1746 10.7235 27.8425 10.5265 27.4812C10.2857 27.0395 10.021 26.5541 9.91114 26.1625C9.77529 25.6746 9.6834 24.6067 10.2647 24.2268C10.8461 23.8468 11.2756 23.7688 12.3164 23.8268C12.6181 23.8268 12.7839 24.0908 12.9377 24.4267C13.0053 24.5743 13.199 24.979 13.4049 25.4093C13.6677 25.9583 13.9504 26.5491 14.0165 26.7004ZM18.2213 26.1118V26.1116C18.2155 25.5786 18.2104 25.1103 17.3687 23.7548C17.0427 23.2348 16.6709 22.7449 16.2579 22.291C16.1561 22.171 15.299 22.1231 14.9275 22.155C14.5559 22.187 14.1563 22.323 14.1883 22.9549C14.212 23.6802 14.372 24.3946 14.6598 25.0606C14.8362 25.4116 15.2786 25.9917 15.669 26.5037C15.946 26.867 16.1968 27.1959 16.3079 27.3843C16.5756 27.8383 16.9632 27.9263 17.2668 27.6543C17.5705 27.3823 18.2437 26.7784 18.2257 26.3245V26.3325C18.2229 26.2562 18.2221 26.1834 18.2213 26.1118ZM63.6902 66.081C66.1035 66.227 66.6848 63.7413 66.571 63.1194L66.563 63.1154C66.2713 61.5196 63.0749 61.8596 63.0749 61.8596C63.3254 61.2504 63.5102 60.6162 63.6263 59.9678C63.7761 59.2239 63.5025 58.87 63.2707 58.704C63.3606 58.494 63.5624 58.2161 63.7821 58.1721C64.0019 58.1281 64.5613 58.2781 64.801 59.2179C64.9909 59.9803 65.0809 60.7641 65.0687 61.5496C68.4356 55.9548 70.2026 49.5417 70.1769 43.0102C70.1769 42.8299 70.173 42.6568 70.1691 42.4813V42.4812V42.481V42.4809V42.4808C70.165 42.3002 70.1609 42.117 70.1609 41.9203L67.1383 43.8001C67.033 48.6446 65.8561 53.4055 63.6922 57.7401L63.1748 58.646C63.1151 58.6155 63.053 58.5901 62.989 58.57C62.8501 58.5309 62.7849 58.5492 62.673 58.5805C62.6192 58.5956 62.5545 58.6138 62.4656 58.63L61.5347 58.802C61.4852 57.8158 61.4137 57.7748 61.0485 57.5651C60.9864 57.5295 60.9159 57.489 60.8355 57.4382C60.0104 56.9183 57.5792 58.718 57.5792 58.718C57.5567 58.3605 57.6169 58.0026 57.755 57.6722C58.2824 56.1764 56.7501 56.0524 56.4125 56.1564C52.6308 57.3202 51.3003 60.7277 50.7449 62.2095C50.1895 63.6913 50.4852 64.2213 51.562 64.4252C52.6388 64.6292 53.9433 63.5194 53.9433 63.5194C53.9433 63.5194 53.9832 64.9152 54.9421 65.2071C55.7592 65.4551 57.3874 64.2193 57.3874 64.2193C57.3874 64.2193 57.0538 65.2571 58.3423 65.6191C59.1154 65.833 60.6377 64.8332 60.6377 64.8332C60.6377 64.8332 61.277 65.935 63.6902 66.081ZM64.9908 64.3592C65.7219 63.6373 65.3903 62.8514 64.2955 62.8234C63.2008 62.7955 61.6545 63.8413 61.6545 63.8413C62.0301 64.3912 63.8001 65.5331 64.9908 64.3592ZM60.0484 61.9176C60.6597 61.2177 61.9103 60.4358 62.144 60.6677C62.4916 61.0177 61.3029 62.3575 60.7795 62.8514C60.7299 62.8983 60.6774 62.9486 60.6226 63.0011L60.6219 63.0018C60.0992 63.5026 59.3703 64.201 58.9456 63.9893C58.4761 63.7553 59.4371 62.6175 60.0484 61.9176ZM60.1682 59.4179C59.8526 59.13 58.5361 59.158 57.0218 60.6957C56.5024 61.2237 55.4536 63.0494 55.8231 63.4594C56.1927 63.8693 57.8209 62.5335 58.2704 62.1235C58.3208 62.0775 58.3921 62.0155 58.4781 61.9408C59.158 61.3496 60.7526 59.9629 60.1602 59.4179H60.1682ZM55.1928 60.6316C55.183 60.6448 55.174 60.6568 55.1659 60.6677H55.1699C54.5466 61.4996 52.9144 63.1714 52.1153 62.8554C51.498 62.6135 52.463 60.5818 53.8014 59.2719C54.4787 58.608 55.933 57.2582 56.3645 57.5842C57.0648 58.1196 55.5567 60.1433 55.1928 60.6316Z" fill="#E73B2A" style="fill:#E73B2A;fill:color(display-p3 0.9059 0.2314 0.1647);fill-opacity:1;"/>
<path fill-rule="evenodd" clip-rule="evenodd" d="M51.3897 15.0631L51.3811 15.0579L51.3997 15.0491L51.3897 15.0631ZM51.3811 15.0579C50.5018 15.4763 48.7487 16.5449 48.7487 16.5449C48.523 16.147 48.469 14.3092 48.457 13.5273C49.4629 13.9755 50.4395 14.4867 51.3811 15.0579ZM33.1664 18.8526C37.2957 17.5708 44.118 17.7668 44.1 17.7748C36.8402 22.2401 24.9696 23.9739 24.9696 23.9739L24.7059 22.8641C24.7059 22.8641 26.5039 20.9183 33.1664 18.8486V18.8526ZM52.1249 55.9635C50.0253 59.337 48.3771 62.6026 48.3771 62.6026L50.6006 62.6806C50.6406 62.5366 50.6925 62.3826 50.7564 62.2166C51.3118 60.7309 52.6423 57.3253 56.424 56.1615C56.7616 56.0555 58.2939 56.1815 57.7645 57.6753C57.6275 58.0067 57.568 58.3651 57.5907 58.7231C57.5907 58.7231 60.0219 56.9234 60.847 57.4453C60.9295 57.4972 61.0016 57.538 61.0648 57.5738C61.4259 57.7782 61.4969 57.8184 61.5462 58.8071C61.5462 58.8071 61.6401 58.7931 61.766 58.7691C64.4418 54.106 65.8799 48.8345 65.9432 43.4572C57.353 49.2564 52.7002 55.2136 52.1249 55.9635ZM49.1559 24.542L49.1562 24.5278L49.1542 24.5418L49.1559 24.542ZM49.1559 24.542C49.1127 26.9534 51.7733 29.4791 51.7733 29.4791C51.7733 29.4791 50.4608 29.3712 50.4668 29.3912C50.5235 29.6385 50.599 29.8812 50.6925 30.1171L51.4916 30.1271C56.5479 29.5071 61.2805 31.2929 64.5148 33.5266C63.1036 28.9733 60.66 24.8081 57.3749 21.3563C55.4331 23.248 52.878 25.3557 52.8501 25.3557C51.6567 24.9339 50.416 24.6606 49.1559 24.542ZM22.2128 19.8632C22.1006 19.9149 19.6155 21.7412 18.9804 22.2321V22.2261C18.1095 21.3096 17.1061 20.529 16.0038 19.9105C17.4007 18.6209 18.9164 17.4666 20.5307 16.4629C21.1961 17.6431 21.7789 18.9212 22.0522 19.5206L22.0522 19.5206C22.1411 19.7155 22.1972 19.8386 22.2128 19.8632ZM22.2128 19.8632C22.2144 19.8625 22.2155 19.8621 22.2161 19.8621C22.2165 19.8621 22.2167 19.8622 22.2167 19.8625C22.2182 19.8694 22.2168 19.8695 22.2128 19.8632ZM29.968 54.5317L29.9585 54.5316L29.952 54.5257L29.968 54.5317ZM29.9585 54.5316C25.9722 54.481 25.7967 54.0138 25.8087 54.0038C28.9491 51.2981 28.9891 50.1943 28.9891 50.1943C22.902 50.3563 20.3069 48.5105 20.3429 48.4745C20.6186 48.1906 20.8849 47.9273 21.142 47.6846L20.7304 47.2847L20.6981 47.2674L20.6979 47.2672C20.0968 46.9451 17.6132 45.614 16.8468 45.359C16.7207 45.3167 16.6073 45.2802 16.5046 45.2472L16.5045 45.2472C15.8988 45.0525 15.6696 44.9788 15.4184 44.5411C15.3925 44.4911 13.3488 55.4596 13.4447 62.8766V63.0085H19.8275C20.1231 62.2286 20.1531 60.7089 20.1231 59.9949C20.1009 59.5013 20.4504 58.4444 20.7723 57.4709L20.7723 57.4708C20.942 56.9576 21.104 56.4676 21.1999 56.0955C21.422 55.2335 21.3655 53.7601 21.334 52.9376C21.3261 52.7317 21.3198 52.5665 21.3198 52.462C21.3198 51.9401 21.3198 51.2621 21.8671 51.2382C22.4145 51.2142 23.1177 51.6381 23.6132 52.8939C24.1086 54.1498 25.5909 55.1076 26.8415 55.6296C27.668 55.9745 28.5687 55.8818 29.3631 55.8001C29.7706 55.7582 30.1502 55.7191 30.4774 55.7435C30.9848 55.7835 31.1746 55.9435 31.1906 56.1615L31.69 55.6635C31.0572 55.3793 30.4729 54.9973 29.9585 54.5316ZM22.7901 37.976C20.9542 38.3759 16.0937 41.8175 16.0937 41.8175C16.1104 41.7002 16.226 40.8864 16.2056 40.8976C16.1913 40.9051 16.1771 40.9127 16.1629 40.9203C16.1099 40.9485 16.0578 40.9763 16.0058 41.0016L16.2056 39.6218C16.9108 39.0678 17.4621 38.6219 17.4621 38.6219C17.4621 38.6219 18.1034 37.982 17.7258 37.486C17.58 37.2758 17.4134 37.0808 17.2284 36.9041C17.2284 36.9041 18.7467 35.6163 18.9145 32.4507C18.9145 32.4499 18.9315 32.4442 18.963 32.4337C19.3084 32.3179 21.4017 31.6163 22.0589 30.295C22.0809 30.257 23.0438 30.619 23.0438 30.619C23.0438 30.619 22.4765 32.2348 22.4445 32.8187C22.4125 33.4026 22.4445 33.4346 22.4445 33.4346C22.4445 33.4346 22.3846 33.5646 21.8312 33.2866C21.7772 33.2586 21.9491 33.9005 22.5903 34.7104C22.7221 34.8812 22.7202 35.1959 22.7181 35.5397C22.7169 35.7274 22.7157 35.9238 22.7362 36.1102C22.745 36.1906 22.7516 36.2602 22.7574 36.3204C22.7894 36.6562 22.794 36.7041 22.9939 36.7262C23.2296 36.7521 23.3714 36.8381 23.3435 37.1021C23.2957 37.3079 23.2643 37.5172 23.2496 37.728C23.0938 37.834 22.9439 37.934 22.7901 38.034C22.7884 38.0147 22.7884 37.9953 22.7901 37.976Z" fill="#F8E931" style="fill:#F8E931;fill:color(display-p3 0.9725 0.9137 0.1922);fill-opacity:1;"/>
</svg>
